<?xml version="1.0" standalone="no"?>
<svg viewBox="0 0 200 200" xmlns="http://www.w3.org/2000/svg">
  <path fill="#0F62FE" d="M43.7,-76.3C57,-68.1,68.2,-57,76.7,-43.8C85.3,-30.6,91.1,-15.3,91.7,0.4C92.3,16,87.7,32,79.6,45.9C71.5,59.8,59.8,71.6,45.9,79.7C32.1,87.8,16,92.3,0.4,91.7C-15.3,91,-30.6,85.2,-43.6,76.6C-56.7,68,-67.5,56.6,-75.4,43.4C-83.2,30.1,-88.1,15.1,-88.9,-0.5C-89.6,-16,-86.3,-32,-78.6,-45.5C-71,-59,-58.9,-70,-45,-77.8C-31.2,-85.6,-15.6,-90.2,-0.2,-89.9C15.2,-89.6,30.5,-84.4,43.7,-76.3Z" transform="translate(100 100)" />
</svg>
