<?xml version="1.0" standalone="no"?>
<svg viewBox="0 0 200 200" xmlns="http://www.w3.org/2000/svg">
  <path fill="#0F62FE" d="M41.3,-71.2C53.1,-64.6,62.2,-52.9,70.4,-40.1C78.6,-27.4,86,-13.7,84.7,-0.7C83.4,12.2,73.4,24.4,63.3,33.8C53.2,43.2,42.8,49.7,32.2,56.8C21.7,63.9,10.8,71.5,-1.1,73.4C-13,75.3,-26,71.5,-34.5,63.2C-42.9,54.9,-46.8,42.1,-50.3,30.8C-53.8,19.5,-56.9,9.8,-61.6,-2.7C-66.3,-15.2,-72.6,-30.4,-69.7,-42.6C-66.8,-54.9,-54.6,-64.2,-41.5,-70C-28.3,-75.8,-14.2,-78,0.3,-78.5C14.7,-79,29.4,-77.7,41.3,-71.2Z" transform="translate(100 100)" />
</svg>
