<?xml version="1.0" standalone="no"?>
<svg viewBox="0 0 200 200" xmlns="http://www.w3.org/2000/svg">
  <path fill="#FF0066" d="M43.9,-79.4C54.8,-69.7,60.1,-53.7,65.8,-39.5C71.4,-25.2,77.3,-12.6,80.8,2C84.2,16.6,85.3,33.2,79.5,47.2C73.7,61.2,61,72.5,46.7,77.4C32.3,82.4,16.1,80.9,-0.2,81.4C-16.6,81.8,-33.2,84.1,-46.9,78.7C-60.5,73.3,-71.2,60.3,-75.4,45.9C-79.7,31.5,-77.6,15.7,-76,0.9C-74.4,-13.9,-73.2,-27.8,-68.4,-41.1C-63.5,-54.5,-54.9,-67.4,-42.9,-76.5C-30.9,-85.6,-15.4,-91,0.5,-91.9C16.5,-92.8,32.9,-89.2,43.9,-79.4Z" transform="translate(100 100)" />
</svg>
