<?xml version="1.0" standalone="no"?>
<svg viewBox="0 0 200 200" xmlns="http://www.w3.org/2000/svg">
  <path fill="#FF0066" d="M40.2,-68.2C53.3,-62.2,65.7,-53.7,70.8,-41.9C75.8,-30.1,73.4,-15.1,73,-0.3C72.5,14.5,74,29,69.3,41.5C64.7,54,53.9,64.4,41.4,73.7C28.8,83,14.4,91.3,1.6,88.5C-11.2,85.8,-22.4,72,-34.8,62.5C-47.1,53.1,-60.6,47.9,-68.1,38.2C-75.6,28.5,-77.2,14.3,-76.2,0.6C-75.1,-13.1,-71.6,-26.2,-66.6,-40.3C-61.7,-54.5,-55.3,-69.7,-44,-76.7C-32.7,-83.7,-16.3,-82.5,-1.4,-80.1C13.6,-77.7,27.2,-74.2,40.2,-68.2Z" transform="translate(100 100)" />
</svg>
