<?xml version="1.0" standalone="no"?>
<svg viewBox="0 0 200 200" xmlns="http://www.w3.org/2000/svg">
  <path fill="#0F62FE" d="M39,-58.7C50,-53.6,58,-41.9,63.1,-29.3C68.2,-16.6,70.4,-3.1,70.9,11.9C71.4,26.8,70.1,43.2,62.6,57C55,70.8,41.2,82,26.9,81.7C12.5,81.5,-2.3,69.9,-16.9,63.1C-31.5,56.3,-45.9,54.3,-56.1,46.5C-66.3,38.6,-72.3,24.9,-75.2,10.3C-78.1,-4.3,-77.9,-19.9,-70.2,-30.1C-62.5,-40.2,-47.1,-44.8,-34.2,-49C-21.2,-53.1,-10.6,-56.7,1.7,-59.4C14,-62.1,28,-63.7,39,-58.7Z" transform="translate(100 100)" />
</svg>
