<?xml version="1.0" standalone="no"?>
<svg viewBox="0 0 200 200" xmlns="http://www.w3.org/2000/svg">
  <path fill="#0F62FE" d="M39,-56.2C49.3,-54.1,55.6,-41.2,58,-28.6C60.3,-16.1,58.8,-3.9,55.4,6.8C52.1,17.6,47.1,27,39.5,32.2C31.8,37.3,21.7,38.3,10.3,47.1C-1,55.8,-13.6,72.5,-28.1,76.8C-42.6,81.2,-59,73.2,-68.7,60.4C-78.5,47.6,-81.5,29.9,-82.6,12.8C-83.7,-4.3,-82.7,-20.8,-72.6,-29.2C-62.6,-37.6,-43.6,-37.8,-29.9,-38.4C-16.3,-39,-8.2,-39.8,3.1,-44.6C14.4,-49.5,28.7,-58.3,39,-56.2Z" transform="translate(100 100)" />
</svg>
